{
	"asset":{
		"generator":"Khronos glTF Blender I/O v3.5.30",
		"version":"2.0"
	},
	"extensionsUsed":[
		"KHR_materials_emissive_strength",
		"KHR_materials_specular",
		"KHR_materials_ior"
	],
	"scene":0,
	"scenes":[
		{
			"name":"Scene",
			"nodes":[
				0
			]
		}
	],
	"nodes":[
		{
			"mesh":0,
			"name":"Sphere.001"
		}
	],
	"animations":[
		{
			"channels":[
				{
					"sampler":0,
					"target":{
						"node":0,
						"path":"translation"
					}
				},
				{
					"sampler":1,
					"target":{
						"node":0,
						"path":"rotation"
					}
				},
				{
					"sampler":2,
					"target":{
						"node":0,
						"path":"scale"
					}
				}
			],
			"name":"Sphere.002Action.002",
			"samplers":[
				{
					"input":4,
					"interpolation":"LINEAR",
					"output":5
				},
				{
					"input":4,
					"interpolation":"LINEAR",
					"output":6
				},
				{
					"input":4,
					"interpolation":"LINEAR",
					"output":7
				}
			]
		}
	],
	"materials":[
		{
			"emissiveFactor":[
				0.011931263841688633,
				1,
				0
			],
			"extensions":{
				"KHR_materials_emissive_strength":{
					"emissiveStrength":5
				},
				"KHR_materials_specular":{
					"specularColorFactor":[
						0,
						0,
						0
					]
				},
				"KHR_materials_ior":{
					"ior":1.4500000476837158
				}
			},
			"name":"Arestas.001",
			"pbrMetallicRoughness":{
				"baseColorFactor":[
					0,
					0.8000000715255737,
					0.001829107291996479,
					1
				],
				"metallicFactor":0,
				"roughnessFactor":0
			}
		}
	],
	"meshes":[
		{
			"name":"Sphere.001",
			"primitives":[
				{
					"attributes":{
						"POSITION":0,
						"TEXCOORD_0":1,
						"NORMAL":2
					},
					"indices":3,
					"material":0
				}
			]
		}
	],
	"accessors":[
		{
			"bufferView":0,
			"componentType":5126,
			"count":5031,
			"max":[
				0.9995631575584412,
				0.997751772403717,
				0.9995628595352173
			],
			"min":[
				-0.9995625019073486,
				-0.997751772403717,
				-0.9995622634887695
			],
			"type":"VEC3"
		},
		{
			"bufferView":1,
			"componentType":5126,
			"count":5031,
			"type":"VEC2"
		},
		{
			"bufferView":2,
			"componentType":5126,
			"count":5031,
			"type":"VEC3"
		},
		{
			"bufferView":3,
			"componentType":5123,
			"count":22098,
			"type":"SCALAR"
		},
		{
			"bufferView":4,
			"componentType":5126,
			"count":92,
			"max":[
				3.7916666666666665
			],
			"min":[
				0
			],
			"type":"SCALAR"
		},
		{
			"bufferView":5,
			"componentType":5126,
			"count":92,
			"type":"VEC3"
		},
		{
			"bufferView":6,
			"componentType":5126,
			"count":92,
			"type":"VEC4"
		},
		{
			"bufferView":7,
			"componentType":5126,
			"count":92,
			"type":"VEC3"
		}
	],
	"bufferViews":[
		{
			"buffer":0,
			"byteLength":60372,
			"byteOffset":0,
			"target":34962
		},
		{
			"buffer":0,
			"byteLength":40248,
			"byteOffset":60372,
			"target":34962
		},
		{
			"buffer":0,
			"byteLength":60372,
			"byteOffset":100620,
			"target":34962
		},
		{
			"buffer":0,
			"byteLength":44196,
			"byteOffset":160992,
			"target":34963
		},
		{
			"buffer":0,
			"byteLength":368,
			"byteOffset":205188
		},
		{
			"buffer":0,
			"byteLength":1104,
			"byteOffset":205556
		},
		{
			"buffer":0,
			"byteLength":1472,
			"byteOffset":206660
		},
		{
			"buffer":0,
			"byteLength":1104,
			"byteOffset":208132
		}
	],
	"buffers":[
		{
			"byteLength":209236,
			"uri":"data:application/octet-stream;base64,"
		}
	]
}
